<mxfile host="app.diagrams.net" agent="Mozilla/5.0 (Windows NT 10.0; Win64; x64) AppleWebKit/537.36 (KHTML, like Gecko) Chrome/131.0.0.0 Safari/537.36" version="24.9.3">
  <diagram name="Page-1" id="WEbzO_yvY_ItyreQTW5p">
    <mxGraphModel grid="1" page="1" gridSize="10" guides="1" tooltips="1" connect="1" arrows="1" fold="1" pageScale="1" pageWidth="827" pageHeight="1169" math="0" shadow="0">
      <root>
        <mxCell id="0" />
        <mxCell id="1" parent="0" />
        <mxCell id="KntlDxWj1JQ8URdqVxIv-17" value="" style="rounded=0;whiteSpace=wrap;html=1;fontFamily=Helvetica;fontSize=11;fontColor=default;labelBackgroundColor=default;fillColor=none;movable=0;resizable=0;rotatable=0;deletable=0;editable=0;locked=1;connectable=0;" vertex="1" parent="1">
          <mxGeometry x="-430" y="720" width="1080" height="1300" as="geometry" />
        </mxCell>
        <mxCell id="mtAjWwOIwIPZI-ChwPMv-50" style="edgeStyle=none;shape=connector;rounded=0;orthogonalLoop=1;jettySize=auto;html=1;entryX=1;entryY=0;entryDx=0;entryDy=0;dashed=1;strokeColor=default;align=center;verticalAlign=bottom;fontFamily=Helvetica;fontSize=11;fontColor=default;labelBackgroundColor=none;endArrow=open;endFill=0;endSize=16;" edge="1" parent="1" source="sxXpRoSORVbP_JtLXdpG-5" target="JXg_B-R4D7Lqk1NZYJ8m-3">
          <mxGeometry relative="1" as="geometry" />
        </mxCell>
        <mxCell id="mtAjWwOIwIPZI-ChwPMv-51" value="&amp;lt;&amp;lt;include&amp;gt;&amp;gt;" style="edgeLabel;html=1;align=center;verticalAlign=middle;resizable=0;points=[];fontFamily=Helvetica;fontSize=11;fontColor=default;labelBackgroundColor=none;" connectable="0" vertex="1" parent="mtAjWwOIwIPZI-ChwPMv-50">
          <mxGeometry x="-0.2652" y="2" relative="1" as="geometry">
            <mxPoint y="-1" as="offset" />
          </mxGeometry>
        </mxCell>
        <mxCell id="sxXpRoSORVbP_JtLXdpG-5" value="Quản lý danh mục sách" style="ellipse;whiteSpace=wrap;html=1;" vertex="1" parent="1">
          <mxGeometry x="373" y="910" width="120" height="80" as="geometry" />
        </mxCell>
        <mxCell id="mtAjWwOIwIPZI-ChwPMv-52" style="edgeStyle=none;shape=connector;rounded=0;orthogonalLoop=1;jettySize=auto;html=1;entryX=1;entryY=0.5;entryDx=0;entryDy=0;dashed=1;strokeColor=default;align=center;verticalAlign=bottom;fontFamily=Helvetica;fontSize=11;fontColor=default;labelBackgroundColor=none;endArrow=open;endFill=0;endSize=16;" edge="1" parent="1" source="sxXpRoSORVbP_JtLXdpG-6" target="JXg_B-R4D7Lqk1NZYJ8m-3">
          <mxGeometry relative="1" as="geometry" />
        </mxCell>
        <mxCell id="mtAjWwOIwIPZI-ChwPMv-53" value="&amp;lt;&amp;lt;include&amp;gt;&amp;gt;" style="edgeLabel;html=1;align=center;verticalAlign=middle;resizable=0;points=[];fontFamily=Helvetica;fontSize=11;fontColor=default;labelBackgroundColor=none;" connectable="0" vertex="1" parent="mtAjWwOIwIPZI-ChwPMv-52">
          <mxGeometry x="-0.2257" relative="1" as="geometry">
            <mxPoint as="offset" />
          </mxGeometry>
        </mxCell>
        <mxCell id="sxXpRoSORVbP_JtLXdpG-6" value="Quản lý loại sách" style="ellipse;whiteSpace=wrap;html=1;" vertex="1" parent="1">
          <mxGeometry x="373" y="1110" width="120" height="80" as="geometry" />
        </mxCell>
        <mxCell id="mtAjWwOIwIPZI-ChwPMv-58" style="edgeStyle=none;shape=connector;rounded=0;orthogonalLoop=1;jettySize=auto;html=1;entryX=1;entryY=1;entryDx=0;entryDy=0;dashed=1;strokeColor=default;align=center;verticalAlign=bottom;fontFamily=Helvetica;fontSize=11;fontColor=default;labelBackgroundColor=none;endArrow=open;endFill=0;endSize=16;" edge="1" parent="1" source="sxXpRoSORVbP_JtLXdpG-7" target="JXg_B-R4D7Lqk1NZYJ8m-3">
          <mxGeometry relative="1" as="geometry" />
        </mxCell>
        <mxCell id="mtAjWwOIwIPZI-ChwPMv-59" value="&amp;lt;&amp;lt;include&amp;gt;&amp;gt;" style="edgeLabel;html=1;align=center;verticalAlign=middle;resizable=0;points=[];fontFamily=Helvetica;fontSize=11;fontColor=default;labelBackgroundColor=none;" connectable="0" vertex="1" parent="mtAjWwOIwIPZI-ChwPMv-58">
          <mxGeometry x="-0.1565" y="1" relative="1" as="geometry">
            <mxPoint x="-1" as="offset" />
          </mxGeometry>
        </mxCell>
        <mxCell id="sxXpRoSORVbP_JtLXdpG-7" value="Quản lý thông tin phiếu mượn" style="ellipse;whiteSpace=wrap;html=1;" vertex="1" parent="1">
          <mxGeometry x="373" y="1666.81" width="120" height="80" as="geometry" />
        </mxCell>
        <mxCell id="sxXpRoSORVbP_JtLXdpG-8" value="Quản lý bản sao" style="ellipse;whiteSpace=wrap;html=1;" vertex="1" parent="1">
          <mxGeometry x="373" y="1850" width="120" height="80" as="geometry" />
        </mxCell>
        <mxCell id="sxXpRoSORVbP_JtLXdpG-9" value="Quản lý nhân viên" style="ellipse;whiteSpace=wrap;html=1;" vertex="1" parent="1">
          <mxGeometry x="-340" y="995" width="120" height="80" as="geometry" />
        </mxCell>
        <mxCell id="mtAjWwOIwIPZI-ChwPMv-67" style="edgeStyle=none;shape=connector;rounded=0;orthogonalLoop=1;jettySize=auto;html=1;entryX=0;entryY=0.5;entryDx=0;entryDy=0;dashed=1;strokeColor=default;align=center;verticalAlign=bottom;fontFamily=Helvetica;fontSize=11;fontColor=default;labelBackgroundColor=none;endArrow=open;endFill=0;endSize=16;" edge="1" parent="1" source="sxXpRoSORVbP_JtLXdpG-10" target="JXg_B-R4D7Lqk1NZYJ8m-3">
          <mxGeometry relative="1" as="geometry" />
        </mxCell>
        <mxCell id="mtAjWwOIwIPZI-ChwPMv-68" value="&amp;lt;&amp;lt;include&amp;gt;&amp;gt;" style="edgeLabel;html=1;align=center;verticalAlign=middle;resizable=0;points=[];fontFamily=Helvetica;fontSize=11;fontColor=default;labelBackgroundColor=none;" connectable="0" vertex="1" parent="mtAjWwOIwIPZI-ChwPMv-67">
          <mxGeometry x="0.0639" y="-3" relative="1" as="geometry">
            <mxPoint x="1" as="offset" />
          </mxGeometry>
        </mxCell>
        <mxCell id="sxXpRoSORVbP_JtLXdpG-10" value="Thống kê" style="ellipse;whiteSpace=wrap;html=1;" vertex="1" parent="1">
          <mxGeometry x="-227.5" y="1250" width="120" height="80" as="geometry" />
        </mxCell>
        <mxCell id="mtAjWwOIwIPZI-ChwPMv-64" style="edgeStyle=none;shape=connector;rounded=0;orthogonalLoop=1;jettySize=auto;html=1;entryX=0.5;entryY=1;entryDx=0;entryDy=0;dashed=1;strokeColor=default;align=center;verticalAlign=bottom;fontFamily=Helvetica;fontSize=11;fontColor=default;labelBackgroundColor=none;endArrow=open;endFill=0;endSize=16;" edge="1" parent="1" source="sxXpRoSORVbP_JtLXdpG-13" target="JXg_B-R4D7Lqk1NZYJ8m-3">
          <mxGeometry relative="1" as="geometry" />
        </mxCell>
        <mxCell id="mtAjWwOIwIPZI-ChwPMv-65" value="&amp;lt;&amp;lt;include&amp;gt;&amp;gt;" style="edgeLabel;html=1;align=center;verticalAlign=middle;resizable=0;points=[];fontFamily=Helvetica;fontSize=11;fontColor=default;labelBackgroundColor=none;" connectable="0" vertex="1" parent="mtAjWwOIwIPZI-ChwPMv-64">
          <mxGeometry x="-0.3687" relative="1" as="geometry">
            <mxPoint y="-1" as="offset" />
          </mxGeometry>
        </mxCell>
        <mxCell id="sxXpRoSORVbP_JtLXdpG-13" value="Đăng xuất" style="ellipse;whiteSpace=wrap;html=1;" vertex="1" parent="1">
          <mxGeometry x="130" y="1520" width="120" height="80" as="geometry" />
        </mxCell>
        <mxCell id="JXg_B-R4D7Lqk1NZYJ8m-15" style="edgeStyle=none;shape=connector;rounded=0;orthogonalLoop=1;jettySize=auto;html=1;entryX=0;entryY=1;entryDx=0;entryDy=0;strokeColor=default;align=center;verticalAlign=middle;fontFamily=Helvetica;fontSize=11;fontColor=default;labelBackgroundColor=default;endArrow=none;" edge="1" parent="1" source="JXg_B-R4D7Lqk1NZYJ8m-1" target="JXg_B-R4D7Lqk1NZYJ8m-3">
          <mxGeometry relative="1" as="geometry" />
        </mxCell>
        <mxCell id="JXg_B-R4D7Lqk1NZYJ8m-1" value="Thủ thư" style="shape=umlActor;verticalLabelPosition=bottom;verticalAlign=top;html=1;outlineConnect=0;" vertex="1" parent="1">
          <mxGeometry x="-530" y="1470" width="30" height="60" as="geometry" />
        </mxCell>
        <mxCell id="JXg_B-R4D7Lqk1NZYJ8m-14" style="edgeStyle=none;shape=connector;rounded=0;orthogonalLoop=1;jettySize=auto;html=1;entryX=0;entryY=0.5;entryDx=0;entryDy=0;strokeColor=default;align=center;verticalAlign=middle;fontFamily=Helvetica;fontSize=11;fontColor=default;labelBackgroundColor=default;endArrow=none;" edge="1" parent="1" target="JXg_B-R4D7Lqk1NZYJ8m-8">
          <mxGeometry relative="1" as="geometry">
            <mxPoint x="-480" y="860" as="sourcePoint" />
          </mxGeometry>
        </mxCell>
        <mxCell id="JXg_B-R4D7Lqk1NZYJ8m-26" style="edgeStyle=none;shape=connector;rounded=0;orthogonalLoop=1;jettySize=auto;html=1;entryX=0;entryY=0.5;entryDx=0;entryDy=0;strokeColor=default;align=center;verticalAlign=middle;fontFamily=Helvetica;fontSize=11;fontColor=default;labelBackgroundColor=default;endArrow=none;" edge="1" parent="1" target="JXg_B-R4D7Lqk1NZYJ8m-20">
          <mxGeometry relative="1" as="geometry">
            <mxPoint x="-480" y="830" as="sourcePoint" />
          </mxGeometry>
        </mxCell>
        <mxCell id="JXg_B-R4D7Lqk1NZYJ8m-2" value="Quản lý" style="shape=umlActor;verticalLabelPosition=bottom;verticalAlign=top;html=1;outlineConnect=0;" vertex="1" parent="1">
          <mxGeometry x="-530" y="800" width="30" height="60" as="geometry" />
        </mxCell>
        <mxCell id="mtAjWwOIwIPZI-ChwPMv-54" style="edgeStyle=none;shape=connector;rounded=0;orthogonalLoop=1;jettySize=auto;html=1;entryX=1;entryY=0.5;entryDx=0;entryDy=0;dashed=1;strokeColor=default;align=center;verticalAlign=bottom;fontFamily=Helvetica;fontSize=11;fontColor=default;labelBackgroundColor=none;endArrow=open;endFill=0;endSize=16;" edge="1" parent="1" source="JXg_B-R4D7Lqk1NZYJ8m-4" target="JXg_B-R4D7Lqk1NZYJ8m-3">
          <mxGeometry relative="1" as="geometry" />
        </mxCell>
        <mxCell id="mtAjWwOIwIPZI-ChwPMv-55" value="&amp;lt;&amp;lt;include&amp;gt;&amp;gt;" style="edgeLabel;html=1;align=center;verticalAlign=middle;resizable=0;points=[];fontFamily=Helvetica;fontSize=11;fontColor=default;labelBackgroundColor=none;" connectable="0" vertex="1" parent="mtAjWwOIwIPZI-ChwPMv-54">
          <mxGeometry x="-0.2367" y="-3" relative="1" as="geometry">
            <mxPoint as="offset" />
          </mxGeometry>
        </mxCell>
        <mxCell id="JXg_B-R4D7Lqk1NZYJ8m-4" value="Quản lý độc giả" style="ellipse;whiteSpace=wrap;html=1;" vertex="1" parent="1">
          <mxGeometry x="373" y="1310" width="120" height="80" as="geometry" />
        </mxCell>
        <mxCell id="mtAjWwOIwIPZI-ChwPMv-27" style="edgeStyle=none;shape=connector;rounded=0;orthogonalLoop=1;jettySize=auto;html=1;entryX=1;entryY=0;entryDx=0;entryDy=0;dashed=1;strokeColor=default;align=center;verticalAlign=bottom;fontFamily=Helvetica;fontSize=11;fontColor=default;labelBackgroundColor=none;endArrow=open;endFill=0;endSize=16;" edge="1" parent="1" source="JXg_B-R4D7Lqk1NZYJ8m-5" target="JXg_B-R4D7Lqk1NZYJ8m-4">
          <mxGeometry relative="1" as="geometry" />
        </mxCell>
        <mxCell id="mtAjWwOIwIPZI-ChwPMv-28" value="&amp;lt;&amp;lt;extend&amp;gt;&amp;gt;" style="edgeLabel;html=1;align=center;verticalAlign=middle;resizable=0;points=[];fontFamily=Helvetica;fontSize=11;fontColor=default;labelBackgroundColor=none;" vertex="1" connectable="0" parent="mtAjWwOIwIPZI-ChwPMv-27">
          <mxGeometry x="-0.1462" y="-3" relative="1" as="geometry">
            <mxPoint as="offset" />
          </mxGeometry>
        </mxCell>
        <mxCell id="JXg_B-R4D7Lqk1NZYJ8m-5" value="Thêm độc giả" style="ellipse;whiteSpace=wrap;html=1;" vertex="1" parent="1">
          <mxGeometry x="500" y="1240" width="80" height="50" as="geometry" />
        </mxCell>
        <mxCell id="mtAjWwOIwIPZI-ChwPMv-26" style="edgeStyle=none;shape=connector;rounded=0;orthogonalLoop=1;jettySize=auto;html=1;entryX=1;entryY=0.5;entryDx=0;entryDy=0;dashed=1;strokeColor=default;align=center;verticalAlign=bottom;fontFamily=Helvetica;fontSize=11;fontColor=default;labelBackgroundColor=none;endArrow=open;endFill=0;endSize=16;" edge="1" parent="1" source="JXg_B-R4D7Lqk1NZYJ8m-6" target="JXg_B-R4D7Lqk1NZYJ8m-4">
          <mxGeometry relative="1" as="geometry" />
        </mxCell>
        <mxCell id="mtAjWwOIwIPZI-ChwPMv-29" value="&amp;lt;&amp;lt;extend&amp;gt;&amp;gt;" style="edgeLabel;html=1;align=center;verticalAlign=middle;resizable=0;points=[];fontFamily=Helvetica;fontSize=11;fontColor=default;labelBackgroundColor=none;" vertex="1" connectable="0" parent="mtAjWwOIwIPZI-ChwPMv-26">
          <mxGeometry x="-0.2631" y="2" relative="1" as="geometry">
            <mxPoint as="offset" />
          </mxGeometry>
        </mxCell>
        <mxCell id="JXg_B-R4D7Lqk1NZYJ8m-6" value="Sửa độc giả" style="ellipse;whiteSpace=wrap;html=1;" vertex="1" parent="1">
          <mxGeometry x="554" y="1290" width="80" height="55" as="geometry" />
        </mxCell>
        <mxCell id="mtAjWwOIwIPZI-ChwPMv-25" style="edgeStyle=none;shape=connector;rounded=0;orthogonalLoop=1;jettySize=auto;html=1;entryX=1;entryY=1;entryDx=0;entryDy=0;dashed=1;strokeColor=default;align=center;verticalAlign=bottom;fontFamily=Helvetica;fontSize=11;fontColor=default;labelBackgroundColor=none;endArrow=open;endFill=0;endSize=16;" edge="1" parent="1" source="JXg_B-R4D7Lqk1NZYJ8m-7" target="JXg_B-R4D7Lqk1NZYJ8m-4">
          <mxGeometry relative="1" as="geometry" />
        </mxCell>
        <mxCell id="mtAjWwOIwIPZI-ChwPMv-30" value="&amp;lt;&amp;lt;extend&amp;gt;&amp;gt;" style="edgeLabel;html=1;align=center;verticalAlign=middle;resizable=0;points=[];fontFamily=Helvetica;fontSize=11;fontColor=default;labelBackgroundColor=none;" vertex="1" connectable="0" parent="mtAjWwOIwIPZI-ChwPMv-25">
          <mxGeometry x="-0.3466" y="2" relative="1" as="geometry">
            <mxPoint as="offset" />
          </mxGeometry>
        </mxCell>
        <mxCell id="JXg_B-R4D7Lqk1NZYJ8m-7" value="Xem danh sách đôc giả" style="ellipse;whiteSpace=wrap;html=1;" vertex="1" parent="1">
          <mxGeometry x="554" y="1360" width="80" height="60" as="geometry" />
        </mxCell>
        <mxCell id="JXg_B-R4D7Lqk1NZYJ8m-8" value="Xóa độc giả" style="ellipse;whiteSpace=wrap;html=1;" vertex="1" parent="1">
          <mxGeometry x="-227.5" y="892.5" width="80" height="50" as="geometry" />
        </mxCell>
        <mxCell id="mtAjWwOIwIPZI-ChwPMv-31" style="edgeStyle=none;shape=connector;rounded=0;orthogonalLoop=1;jettySize=auto;html=1;entryX=1;entryY=0;entryDx=0;entryDy=0;dashed=1;strokeColor=default;align=center;verticalAlign=bottom;fontFamily=Helvetica;fontSize=11;fontColor=default;labelBackgroundColor=none;endArrow=open;endFill=0;endSize=16;" edge="1" parent="1" source="JXg_B-R4D7Lqk1NZYJ8m-17" target="sxXpRoSORVbP_JtLXdpG-6">
          <mxGeometry relative="1" as="geometry" />
        </mxCell>
        <mxCell id="mtAjWwOIwIPZI-ChwPMv-34" value="&amp;lt;&amp;lt;extend&amp;gt;&amp;gt;" style="edgeLabel;html=1;align=center;verticalAlign=middle;resizable=0;points=[];fontFamily=Helvetica;fontSize=11;fontColor=default;labelBackgroundColor=none;" connectable="0" vertex="1" parent="mtAjWwOIwIPZI-ChwPMv-31">
          <mxGeometry x="-0.1748" y="3" relative="1" as="geometry">
            <mxPoint as="offset" />
          </mxGeometry>
        </mxCell>
        <mxCell id="JXg_B-R4D7Lqk1NZYJ8m-17" value="Thêm loại sách" style="ellipse;whiteSpace=wrap;html=1;" vertex="1" parent="1">
          <mxGeometry x="515" y="1040" width="80" height="50" as="geometry" />
        </mxCell>
        <mxCell id="mtAjWwOIwIPZI-ChwPMv-32" style="edgeStyle=none;shape=connector;rounded=0;orthogonalLoop=1;jettySize=auto;html=1;entryX=1;entryY=0.5;entryDx=0;entryDy=0;dashed=1;strokeColor=default;align=center;verticalAlign=bottom;fontFamily=Helvetica;fontSize=11;fontColor=default;labelBackgroundColor=none;endArrow=open;endFill=0;endSize=16;" edge="1" parent="1" source="JXg_B-R4D7Lqk1NZYJ8m-18" target="sxXpRoSORVbP_JtLXdpG-6">
          <mxGeometry relative="1" as="geometry" />
        </mxCell>
        <mxCell id="mtAjWwOIwIPZI-ChwPMv-35" value="&amp;lt;&amp;lt;extend&amp;gt;&amp;gt;" style="edgeLabel;html=1;align=center;verticalAlign=middle;resizable=0;points=[];fontFamily=Helvetica;fontSize=11;fontColor=default;labelBackgroundColor=none;" connectable="0" vertex="1" parent="mtAjWwOIwIPZI-ChwPMv-32">
          <mxGeometry x="-0.1017" y="-1" relative="1" as="geometry">
            <mxPoint as="offset" />
          </mxGeometry>
        </mxCell>
        <mxCell id="JXg_B-R4D7Lqk1NZYJ8m-18" value="Sửa loại sách" style="ellipse;whiteSpace=wrap;html=1;" vertex="1" parent="1">
          <mxGeometry x="554" y="1102.5" width="80" height="55" as="geometry" />
        </mxCell>
        <mxCell id="mtAjWwOIwIPZI-ChwPMv-33" style="edgeStyle=none;shape=connector;rounded=0;orthogonalLoop=1;jettySize=auto;html=1;entryX=1;entryY=1;entryDx=0;entryDy=0;dashed=1;strokeColor=default;align=center;verticalAlign=bottom;fontFamily=Helvetica;fontSize=11;fontColor=default;labelBackgroundColor=none;endArrow=open;endFill=0;endSize=16;" edge="1" parent="1" source="JXg_B-R4D7Lqk1NZYJ8m-19" target="sxXpRoSORVbP_JtLXdpG-6">
          <mxGeometry relative="1" as="geometry" />
        </mxCell>
        <mxCell id="mtAjWwOIwIPZI-ChwPMv-36" value="&amp;lt;&amp;lt;extend&amp;gt;&amp;gt;" style="edgeLabel;html=1;align=center;verticalAlign=middle;resizable=0;points=[];fontFamily=Helvetica;fontSize=11;fontColor=default;labelBackgroundColor=none;" connectable="0" vertex="1" parent="mtAjWwOIwIPZI-ChwPMv-33">
          <mxGeometry x="-0.3739" relative="1" as="geometry">
            <mxPoint as="offset" />
          </mxGeometry>
        </mxCell>
        <mxCell id="JXg_B-R4D7Lqk1NZYJ8m-19" value="Xem danh sách loại sách" style="ellipse;whiteSpace=wrap;html=1;" vertex="1" parent="1">
          <mxGeometry x="534" y="1175" width="80" height="60" as="geometry" />
        </mxCell>
        <mxCell id="JXg_B-R4D7Lqk1NZYJ8m-20" value="Xóa loại sách" style="ellipse;whiteSpace=wrap;html=1;" vertex="1" parent="1">
          <mxGeometry x="-187.5" y="840" width="80" height="50" as="geometry" />
        </mxCell>
        <mxCell id="JXg_B-R4D7Lqk1NZYJ8m-27" value="Quên mật khẩu" style="ellipse;whiteSpace=wrap;html=1;" vertex="1" parent="1">
          <mxGeometry x="-152.5" y="1440" width="120" height="80" as="geometry" />
        </mxCell>
        <mxCell id="JXg_B-R4D7Lqk1NZYJ8m-34" value="" style="endArrow=block;endSize=16;endFill=0;html=1;rounded=0;strokeColor=default;align=center;verticalAlign=middle;fontFamily=Helvetica;fontSize=11;fontColor=default;labelBackgroundColor=default;edgeStyle=none;" edge="1" parent="1">
          <mxGeometry width="160" relative="1" as="geometry">
            <mxPoint x="-515.67" y="890" as="sourcePoint" />
            <mxPoint x="-515.34" y="1450" as="targetPoint" />
          </mxGeometry>
        </mxCell>
        <mxCell id="mtAjWwOIwIPZI-ChwPMv-62" style="edgeStyle=none;shape=connector;rounded=0;orthogonalLoop=1;jettySize=auto;html=1;entryX=0.5;entryY=1;entryDx=0;entryDy=0;dashed=1;strokeColor=default;align=center;verticalAlign=bottom;fontFamily=Helvetica;fontSize=11;fontColor=default;labelBackgroundColor=none;endArrow=open;endFill=0;endSize=16;" edge="1" parent="1" source="JXg_B-R4D7Lqk1NZYJ8m-35" target="JXg_B-R4D7Lqk1NZYJ8m-3">
          <mxGeometry relative="1" as="geometry" />
        </mxCell>
        <mxCell id="mtAjWwOIwIPZI-ChwPMv-63" value="&amp;lt;&amp;lt;include&amp;gt;&amp;gt;" style="edgeLabel;html=1;align=center;verticalAlign=middle;resizable=0;points=[];fontFamily=Helvetica;fontSize=11;fontColor=default;labelBackgroundColor=none;" connectable="0" vertex="1" parent="mtAjWwOIwIPZI-ChwPMv-62">
          <mxGeometry x="-0.0206" y="-4" relative="1" as="geometry">
            <mxPoint y="-1" as="offset" />
          </mxGeometry>
        </mxCell>
        <mxCell id="JXg_B-R4D7Lqk1NZYJ8m-35" value="Đổi mật khẩu" style="ellipse;whiteSpace=wrap;html=1;" vertex="1" parent="1">
          <mxGeometry x="-10" y="1480" width="120" height="80" as="geometry" />
        </mxCell>
        <mxCell id="JXg_B-R4D7Lqk1NZYJ8m-36" value="&amp;lt;&amp;lt;extend&amp;gt;&amp;gt;" style="html=1;verticalAlign=bottom;labelBackgroundColor=none;endArrow=open;endFill=0;dashed=1;rounded=0;strokeColor=default;align=center;fontFamily=Helvetica;fontSize=11;fontColor=default;edgeStyle=none;entryX=0.5;entryY=0;entryDx=0;entryDy=0;exitX=0.5;exitY=1;exitDx=0;exitDy=0;" edge="1" parent="1" source="JXg_B-R4D7Lqk1NZYJ8m-3" target="JXg_B-R4D7Lqk1NZYJ8m-27">
          <mxGeometry width="160" relative="1" as="geometry">
            <mxPoint x="260" y="1770" as="sourcePoint" />
            <mxPoint x="420" y="1770" as="targetPoint" />
          </mxGeometry>
        </mxCell>
        <mxCell id="lPs-DbJnuO5xEuhCPwWq-3" value="Thêm sách&amp;nbsp;" style="ellipse;whiteSpace=wrap;html=1;" vertex="1" parent="1">
          <mxGeometry x="493" y="840" width="80" height="50" as="geometry" />
        </mxCell>
        <mxCell id="lPs-DbJnuO5xEuhCPwWq-5" value="Cập nhật sách&amp;nbsp;" style="ellipse;whiteSpace=wrap;html=1;" vertex="1" parent="1">
          <mxGeometry x="558" y="880" width="80" height="55" as="geometry" />
        </mxCell>
        <mxCell id="lPs-DbJnuO5xEuhCPwWq-7" value="Xem danh mục sách" style="ellipse;whiteSpace=wrap;html=1;" vertex="1" parent="1">
          <mxGeometry x="558" y="970" width="80" height="60" as="geometry" />
        </mxCell>
        <mxCell id="5AK_qEHgEHmX-3JveS3E-1" style="edgeStyle=none;shape=connector;rounded=0;orthogonalLoop=1;jettySize=auto;html=1;entryX=0;entryY=0.5;entryDx=0;entryDy=0;strokeColor=default;align=center;verticalAlign=middle;fontFamily=Helvetica;fontSize=11;fontColor=default;labelBackgroundColor=default;endArrow=none;" edge="1" parent="1" target="5AK_qEHgEHmX-3JveS3E-4">
          <mxGeometry relative="1" as="geometry">
            <mxPoint x="-480" y="820" as="sourcePoint" />
          </mxGeometry>
        </mxCell>
        <mxCell id="5AK_qEHgEHmX-3JveS3E-4" value="Xóa sách&amp;nbsp;" style="ellipse;whiteSpace=wrap;html=1;" vertex="1" parent="1">
          <mxGeometry x="-140" y="790" width="80" height="50" as="geometry" />
        </mxCell>
        <mxCell id="mtAjWwOIwIPZI-ChwPMv-10" style="edgeStyle=none;shape=connector;rounded=0;orthogonalLoop=1;jettySize=auto;html=1;entryX=1;entryY=0;entryDx=0;entryDy=0;dashed=1;strokeColor=default;align=center;verticalAlign=bottom;fontFamily=Helvetica;fontSize=11;fontColor=default;labelBackgroundColor=none;endArrow=open;endFill=0;endSize=16;" edge="1" parent="1" source="5AK_qEHgEHmX-3JveS3E-7" target="sxXpRoSORVbP_JtLXdpG-7">
          <mxGeometry relative="1" as="geometry" />
        </mxCell>
        <mxCell id="mtAjWwOIwIPZI-ChwPMv-15" value="&amp;lt;&amp;lt;extend&amp;gt;&amp;gt;" style="edgeLabel;html=1;align=center;verticalAlign=middle;resizable=0;points=[];fontFamily=Helvetica;fontSize=11;fontColor=default;labelBackgroundColor=none;" vertex="1" connectable="0" parent="mtAjWwOIwIPZI-ChwPMv-10">
          <mxGeometry x="-0.1099" y="2" relative="1" as="geometry">
            <mxPoint as="offset" />
          </mxGeometry>
        </mxCell>
        <mxCell id="5AK_qEHgEHmX-3JveS3E-7" value="Thêm phiếu mượn" style="ellipse;whiteSpace=wrap;html=1;" vertex="1" parent="1">
          <mxGeometry x="503" y="1610" width="80" height="50" as="geometry" />
        </mxCell>
        <mxCell id="mtAjWwOIwIPZI-ChwPMv-11" style="edgeStyle=none;shape=connector;rounded=0;orthogonalLoop=1;jettySize=auto;html=1;entryX=1;entryY=0.5;entryDx=0;entryDy=0;dashed=1;strokeColor=default;align=center;verticalAlign=bottom;fontFamily=Helvetica;fontSize=11;fontColor=default;labelBackgroundColor=none;endArrow=open;endFill=0;endSize=16;" edge="1" parent="1" source="5AK_qEHgEHmX-3JveS3E-9" target="sxXpRoSORVbP_JtLXdpG-7">
          <mxGeometry relative="1" as="geometry" />
        </mxCell>
        <mxCell id="mtAjWwOIwIPZI-ChwPMv-13" value="&amp;lt;&amp;lt;extend&amp;gt;&amp;gt;" style="edgeLabel;html=1;align=center;verticalAlign=middle;resizable=0;points=[];fontFamily=Helvetica;fontSize=11;fontColor=default;labelBackgroundColor=none;" vertex="1" connectable="0" parent="mtAjWwOIwIPZI-ChwPMv-11">
          <mxGeometry x="-0.2292" y="2" relative="1" as="geometry">
            <mxPoint as="offset" />
          </mxGeometry>
        </mxCell>
        <mxCell id="5AK_qEHgEHmX-3JveS3E-9" value="Cập nhật phiếu mượn&amp;nbsp;" style="ellipse;whiteSpace=wrap;html=1;" vertex="1" parent="1">
          <mxGeometry x="548.5" y="1660" width="81" height="55.69" as="geometry" />
        </mxCell>
        <mxCell id="mtAjWwOIwIPZI-ChwPMv-12" style="edgeStyle=none;shape=connector;rounded=0;orthogonalLoop=1;jettySize=auto;html=1;entryX=1;entryY=1;entryDx=0;entryDy=0;dashed=1;strokeColor=default;align=center;verticalAlign=bottom;fontFamily=Helvetica;fontSize=11;fontColor=default;labelBackgroundColor=none;endArrow=open;endFill=0;endSize=16;" edge="1" parent="1" source="5AK_qEHgEHmX-3JveS3E-11" target="sxXpRoSORVbP_JtLXdpG-7">
          <mxGeometry relative="1" as="geometry" />
        </mxCell>
        <mxCell id="mtAjWwOIwIPZI-ChwPMv-14" value="&amp;lt;&amp;lt;extend&amp;gt;&amp;gt;" style="edgeLabel;html=1;align=center;verticalAlign=middle;resizable=0;points=[];fontFamily=Helvetica;fontSize=11;fontColor=default;labelBackgroundColor=none;" vertex="1" connectable="0" parent="mtAjWwOIwIPZI-ChwPMv-12">
          <mxGeometry x="-0.2946" y="-4" relative="1" as="geometry">
            <mxPoint as="offset" />
          </mxGeometry>
        </mxCell>
        <mxCell id="5AK_qEHgEHmX-3JveS3E-11" value="Xem danh sách phiếu mượn&amp;nbsp;" style="ellipse;whiteSpace=wrap;html=1;" vertex="1" parent="1">
          <mxGeometry x="534" y="1735" width="90" height="60" as="geometry" />
        </mxCell>
        <mxCell id="mtAjWwOIwIPZI-ChwPMv-9" style="edgeStyle=none;shape=connector;rounded=0;orthogonalLoop=1;jettySize=auto;html=1;entryX=0.5;entryY=0;entryDx=0;entryDy=0;dashed=1;strokeColor=default;align=center;verticalAlign=bottom;fontFamily=Helvetica;fontSize=11;fontColor=default;labelBackgroundColor=none;endArrow=open;endFill=0;endSize=16;" edge="1" parent="1" source="5AK_qEHgEHmX-3JveS3E-14" target="sxXpRoSORVbP_JtLXdpG-7">
          <mxGeometry relative="1" as="geometry" />
        </mxCell>
        <mxCell id="mtAjWwOIwIPZI-ChwPMv-16" value="&amp;lt;&amp;lt;extend&amp;gt;&amp;gt;" style="edgeLabel;html=1;align=center;verticalAlign=middle;resizable=0;points=[];fontFamily=Helvetica;fontSize=11;fontColor=default;labelBackgroundColor=none;" vertex="1" connectable="0" parent="mtAjWwOIwIPZI-ChwPMv-9">
          <mxGeometry x="-0.1197" y="2" relative="1" as="geometry">
            <mxPoint as="offset" />
          </mxGeometry>
        </mxCell>
        <mxCell id="5AK_qEHgEHmX-3JveS3E-14" value="Xóa phiếu mượn&lt;span style=&quot;background-color: initial;&quot;&gt;&amp;nbsp;&lt;/span&gt;" style="ellipse;whiteSpace=wrap;html=1;" vertex="1" parent="1">
          <mxGeometry x="393" y="1580" width="80" height="50" as="geometry" />
        </mxCell>
        <mxCell id="mtAjWwOIwIPZI-ChwPMv-56" style="edgeStyle=none;shape=connector;rounded=0;orthogonalLoop=1;jettySize=auto;html=1;entryX=1;entryY=1;entryDx=0;entryDy=0;dashed=1;strokeColor=default;align=center;verticalAlign=bottom;fontFamily=Helvetica;fontSize=11;fontColor=default;labelBackgroundColor=none;endArrow=open;endFill=0;endSize=16;" edge="1" parent="1" source="5AK_qEHgEHmX-3JveS3E-15" target="JXg_B-R4D7Lqk1NZYJ8m-3">
          <mxGeometry relative="1" as="geometry" />
        </mxCell>
        <mxCell id="mtAjWwOIwIPZI-ChwPMv-57" value="&amp;lt;&amp;lt;include&amp;gt;&amp;gt;" style="edgeLabel;html=1;align=center;verticalAlign=middle;resizable=0;points=[];fontFamily=Helvetica;fontSize=11;fontColor=default;labelBackgroundColor=none;" connectable="0" vertex="1" parent="mtAjWwOIwIPZI-ChwPMv-56">
          <mxGeometry x="-0.0756" y="-2" relative="1" as="geometry">
            <mxPoint as="offset" />
          </mxGeometry>
        </mxCell>
        <mxCell id="5AK_qEHgEHmX-3JveS3E-15" value="Quản lý thông tin phiếu trả" style="ellipse;whiteSpace=wrap;html=1;" vertex="1" parent="1">
          <mxGeometry x="373" y="1489" width="120" height="80" as="geometry" />
        </mxCell>
        <mxCell id="mtAjWwOIwIPZI-ChwPMv-18" style="edgeStyle=none;shape=connector;rounded=0;orthogonalLoop=1;jettySize=auto;html=1;entryX=1;entryY=0;entryDx=0;entryDy=0;dashed=1;strokeColor=default;align=center;verticalAlign=bottom;fontFamily=Helvetica;fontSize=11;fontColor=default;labelBackgroundColor=none;endArrow=open;endFill=0;endSize=16;" edge="1" parent="1" source="5AK_qEHgEHmX-3JveS3E-17" target="5AK_qEHgEHmX-3JveS3E-15">
          <mxGeometry relative="1" as="geometry" />
        </mxCell>
        <mxCell id="mtAjWwOIwIPZI-ChwPMv-22" value="&amp;lt;&amp;lt;extend&amp;gt;&amp;gt;" style="edgeLabel;html=1;align=center;verticalAlign=middle;resizable=0;points=[];fontFamily=Helvetica;fontSize=11;fontColor=default;labelBackgroundColor=none;" vertex="1" connectable="0" parent="mtAjWwOIwIPZI-ChwPMv-18">
          <mxGeometry x="-0.1797" relative="1" as="geometry">
            <mxPoint as="offset" />
          </mxGeometry>
        </mxCell>
        <mxCell id="5AK_qEHgEHmX-3JveS3E-17" value="Thêm phiếu trả" style="ellipse;whiteSpace=wrap;html=1;" vertex="1" parent="1">
          <mxGeometry x="474" y="1400" width="80" height="50" as="geometry" />
        </mxCell>
        <mxCell id="mtAjWwOIwIPZI-ChwPMv-19" style="edgeStyle=none;shape=connector;rounded=0;orthogonalLoop=1;jettySize=auto;html=1;entryX=1;entryY=0.5;entryDx=0;entryDy=0;dashed=1;strokeColor=default;align=center;verticalAlign=bottom;fontFamily=Helvetica;fontSize=11;fontColor=default;labelBackgroundColor=none;endArrow=open;endFill=0;endSize=16;" edge="1" parent="1" source="5AK_qEHgEHmX-3JveS3E-19" target="5AK_qEHgEHmX-3JveS3E-15">
          <mxGeometry relative="1" as="geometry" />
        </mxCell>
        <mxCell id="mtAjWwOIwIPZI-ChwPMv-21" value="&amp;lt;&amp;lt;extend&amp;gt;&amp;gt;" style="edgeLabel;html=1;align=center;verticalAlign=middle;resizable=0;points=[];fontFamily=Helvetica;fontSize=11;fontColor=default;labelBackgroundColor=none;" vertex="1" connectable="0" parent="mtAjWwOIwIPZI-ChwPMv-19">
          <mxGeometry x="-0.0489" y="2" relative="1" as="geometry">
            <mxPoint as="offset" />
          </mxGeometry>
        </mxCell>
        <mxCell id="5AK_qEHgEHmX-3JveS3E-19" value="Cập nhật phiếu trả&amp;nbsp;" style="ellipse;whiteSpace=wrap;html=1;" vertex="1" parent="1">
          <mxGeometry x="549.5" y="1464" width="80" height="55" as="geometry" />
        </mxCell>
        <mxCell id="mtAjWwOIwIPZI-ChwPMv-20" style="edgeStyle=none;shape=connector;rounded=0;orthogonalLoop=1;jettySize=auto;html=1;entryX=1;entryY=1;entryDx=0;entryDy=0;dashed=1;strokeColor=default;align=center;verticalAlign=bottom;fontFamily=Helvetica;fontSize=11;fontColor=default;labelBackgroundColor=none;endArrow=open;endFill=0;endSize=16;" edge="1" parent="1" source="5AK_qEHgEHmX-3JveS3E-21" target="5AK_qEHgEHmX-3JveS3E-15">
          <mxGeometry relative="1" as="geometry" />
        </mxCell>
        <mxCell id="mtAjWwOIwIPZI-ChwPMv-24" value="&#xa;&lt;span style=&quot;color: rgb(0, 0, 0); font-family: Helvetica; font-size: 11px; font-style: normal; font-variant-ligatures: normal; font-variant-caps: normal; font-weight: 400; letter-spacing: normal; orphans: 2; text-align: center; text-indent: 0px; text-transform: none; widows: 2; word-spacing: 0px; -webkit-text-stroke-width: 0px; white-space: nowrap; background-color: rgb(251, 251, 251); text-decoration-thickness: initial; text-decoration-style: initial; text-decoration-color: initial; display: inline !important; float: none;&quot;&gt;&amp;lt;&amp;lt;extend&amp;gt;&amp;gt;&lt;/span&gt;&#xa;&#xa;" style="edgeLabel;html=1;align=center;verticalAlign=middle;resizable=0;points=[];fontFamily=Helvetica;fontSize=11;fontColor=default;labelBackgroundColor=none;" vertex="1" connectable="0" parent="mtAjWwOIwIPZI-ChwPMv-20">
          <mxGeometry x="-0.0633" y="-2" relative="1" as="geometry">
            <mxPoint x="-1" as="offset" />
          </mxGeometry>
        </mxCell>
        <mxCell id="5AK_qEHgEHmX-3JveS3E-21" value="Xem danh sách phiếu trả&amp;nbsp;" style="ellipse;whiteSpace=wrap;html=1;" vertex="1" parent="1">
          <mxGeometry x="553" y="1550" width="90" height="60" as="geometry" />
        </mxCell>
        <mxCell id="mtAjWwOIwIPZI-ChwPMv-17" style="edgeStyle=none;shape=connector;rounded=0;orthogonalLoop=1;jettySize=auto;html=1;entryX=0.5;entryY=0;entryDx=0;entryDy=0;dashed=1;strokeColor=default;align=center;verticalAlign=bottom;fontFamily=Helvetica;fontSize=11;fontColor=default;labelBackgroundColor=none;endArrow=open;endFill=0;endSize=16;" edge="1" parent="1" source="5AK_qEHgEHmX-3JveS3E-24" target="5AK_qEHgEHmX-3JveS3E-15">
          <mxGeometry relative="1" as="geometry" />
        </mxCell>
        <mxCell id="mtAjWwOIwIPZI-ChwPMv-23" value="&amp;lt;&amp;lt;extend&amp;gt;&amp;gt;" style="edgeLabel;html=1;align=center;verticalAlign=middle;resizable=0;points=[];fontFamily=Helvetica;fontSize=11;fontColor=default;labelBackgroundColor=none;" vertex="1" connectable="0" parent="mtAjWwOIwIPZI-ChwPMv-17">
          <mxGeometry x="0.0095" y="4" relative="1" as="geometry">
            <mxPoint as="offset" />
          </mxGeometry>
        </mxCell>
        <mxCell id="5AK_qEHgEHmX-3JveS3E-24" value="Xóa phiếu trả" style="ellipse;whiteSpace=wrap;html=1;" vertex="1" parent="1">
          <mxGeometry x="374" y="1400" width="80" height="50" as="geometry" />
        </mxCell>
        <mxCell id="mtAjWwOIwIPZI-ChwPMv-44" style="edgeStyle=none;shape=connector;rounded=0;orthogonalLoop=1;jettySize=auto;html=1;entryX=0.5;entryY=1;entryDx=0;entryDy=0;dashed=1;strokeColor=default;align=center;verticalAlign=bottom;fontFamily=Helvetica;fontSize=11;fontColor=default;labelBackgroundColor=none;endArrow=open;endFill=0;endSize=16;" edge="1" parent="1" source="ILvJcXqjGlOj7DsTZ9-h-2" target="sxXpRoSORVbP_JtLXdpG-9">
          <mxGeometry relative="1" as="geometry" />
        </mxCell>
        <mxCell id="mtAjWwOIwIPZI-ChwPMv-46" value="&amp;lt;&amp;lt;extend&amp;gt;&amp;gt;" style="edgeLabel;html=1;align=center;verticalAlign=middle;resizable=0;points=[];fontFamily=Helvetica;fontSize=11;fontColor=default;labelBackgroundColor=none;" connectable="0" vertex="1" parent="mtAjWwOIwIPZI-ChwPMv-44">
          <mxGeometry x="-0.3968" y="-4" relative="1" as="geometry">
            <mxPoint as="offset" />
          </mxGeometry>
        </mxCell>
        <mxCell id="ILvJcXqjGlOj7DsTZ9-h-2" value="Thêm nhân viên" style="ellipse;whiteSpace=wrap;html=1;" vertex="1" parent="1">
          <mxGeometry x="-267.5" y="1114" width="80" height="50" as="geometry" />
        </mxCell>
        <mxCell id="mtAjWwOIwIPZI-ChwPMv-43" style="edgeStyle=none;shape=connector;rounded=0;orthogonalLoop=1;jettySize=auto;html=1;entryX=0;entryY=1;entryDx=0;entryDy=0;dashed=1;strokeColor=default;align=center;verticalAlign=bottom;fontFamily=Helvetica;fontSize=11;fontColor=default;labelBackgroundColor=none;endArrow=open;endFill=0;endSize=16;" edge="1" parent="1" source="ILvJcXqjGlOj7DsTZ9-h-4" target="sxXpRoSORVbP_JtLXdpG-9">
          <mxGeometry relative="1" as="geometry" />
        </mxCell>
        <mxCell id="mtAjWwOIwIPZI-ChwPMv-45" value="&amp;lt;&amp;lt;extend&amp;gt;&amp;gt;" style="edgeLabel;html=1;align=center;verticalAlign=middle;resizable=0;points=[];fontFamily=Helvetica;fontSize=11;fontColor=default;labelBackgroundColor=none;" connectable="0" vertex="1" parent="mtAjWwOIwIPZI-ChwPMv-43">
          <mxGeometry x="-0.1644" y="-1" relative="1" as="geometry">
            <mxPoint as="offset" />
          </mxGeometry>
        </mxCell>
        <mxCell id="ILvJcXqjGlOj7DsTZ9-h-4" value="Cập nhật nhân viên" style="ellipse;whiteSpace=wrap;html=1;" vertex="1" parent="1">
          <mxGeometry x="-360" y="1114" width="80" height="55" as="geometry" />
        </mxCell>
        <mxCell id="ILvJcXqjGlOj7DsTZ9-h-6" value="Xem danh sách&lt;div&gt;nhân viên&lt;/div&gt;" style="ellipse;whiteSpace=wrap;html=1;" vertex="1" parent="1">
          <mxGeometry x="-122.5" y="1030" width="90" height="60" as="geometry" />
        </mxCell>
        <mxCell id="KntlDxWj1JQ8URdqVxIv-2" style="edgeStyle=none;shape=connector;rounded=0;orthogonalLoop=1;jettySize=auto;html=1;strokeColor=default;align=center;verticalAlign=middle;fontFamily=Helvetica;fontSize=11;fontColor=default;labelBackgroundColor=default;endArrow=open;endFill=0;endSize=6;dashed=1;" edge="1" parent="1" source="ILvJcXqjGlOj7DsTZ9-h-9" target="sxXpRoSORVbP_JtLXdpG-9">
          <mxGeometry relative="1" as="geometry" />
        </mxCell>
        <mxCell id="hJ3ovrLD1dVx7QM47scg-3" value="&amp;lt;&amp;lt;extend&amp;gt;&amp;gt;" style="edgeLabel;html=1;align=center;verticalAlign=middle;resizable=0;points=[];" connectable="0" vertex="1" parent="KntlDxWj1JQ8URdqVxIv-2">
          <mxGeometry x="-0.2568" relative="1" as="geometry">
            <mxPoint as="offset" />
          </mxGeometry>
        </mxCell>
        <mxCell id="ILvJcXqjGlOj7DsTZ9-h-9" value="Xóa nhân viên" style="ellipse;whiteSpace=wrap;html=1;" vertex="1" parent="1">
          <mxGeometry x="-390" y="920" width="80" height="50" as="geometry" />
        </mxCell>
        <mxCell id="ILvJcXqjGlOj7DsTZ9-h-10" value="" style="endArrow=none;html=1;rounded=0;entryX=0;entryY=0.5;entryDx=0;entryDy=0;" edge="1" parent="1" target="sxXpRoSORVbP_JtLXdpG-9">
          <mxGeometry width="50" height="50" relative="1" as="geometry">
            <mxPoint x="-490" y="880" as="sourcePoint" />
            <mxPoint x="180" y="1320" as="targetPoint" />
          </mxGeometry>
        </mxCell>
        <mxCell id="mtAjWwOIwIPZI-ChwPMv-7" style="edgeStyle=none;shape=connector;rounded=0;orthogonalLoop=1;jettySize=auto;html=1;entryX=1;entryY=1;entryDx=0;entryDy=0;dashed=1;strokeColor=default;align=center;verticalAlign=bottom;fontFamily=Helvetica;fontSize=11;fontColor=default;labelBackgroundColor=none;endArrow=open;endFill=0;endSize=16;" edge="1" parent="1" source="ILvJcXqjGlOj7DsTZ9-h-15" target="sxXpRoSORVbP_JtLXdpG-8">
          <mxGeometry relative="1" as="geometry" />
        </mxCell>
        <mxCell id="mtAjWwOIwIPZI-ChwPMv-8" value="&amp;lt;&amp;lt;extend&amp;gt;&amp;gt;" style="edgeLabel;html=1;align=center;verticalAlign=middle;resizable=0;points=[];fontFamily=Helvetica;fontSize=11;fontColor=default;labelBackgroundColor=none;" vertex="1" connectable="0" parent="mtAjWwOIwIPZI-ChwPMv-7">
          <mxGeometry x="-0.0326" y="2" relative="1" as="geometry">
            <mxPoint y="1" as="offset" />
          </mxGeometry>
        </mxCell>
        <mxCell id="ILvJcXqjGlOj7DsTZ9-h-15" value="Thêm bản sao" style="ellipse;whiteSpace=wrap;html=1;" vertex="1" parent="1">
          <mxGeometry x="500" y="1930" width="80" height="50" as="geometry" />
        </mxCell>
        <mxCell id="mtAjWwOIwIPZI-ChwPMv-1" style="edgeStyle=none;shape=connector;rounded=0;orthogonalLoop=1;jettySize=auto;html=1;dashed=1;strokeColor=default;align=center;verticalAlign=bottom;fontFamily=Helvetica;fontSize=11;fontColor=default;labelBackgroundColor=none;endArrow=open;endFill=0;endSize=16;" edge="1" parent="1" source="ILvJcXqjGlOj7DsTZ9-h-17" target="sxXpRoSORVbP_JtLXdpG-8">
          <mxGeometry relative="1" as="geometry" />
        </mxCell>
        <mxCell id="mtAjWwOIwIPZI-ChwPMv-2" value="&amp;lt;&amp;lt;extend&amp;gt;&amp;gt;" style="edgeLabel;html=1;align=center;verticalAlign=middle;resizable=0;points=[];fontFamily=Helvetica;fontSize=11;fontColor=default;labelBackgroundColor=none;" vertex="1" connectable="0" parent="mtAjWwOIwIPZI-ChwPMv-1">
          <mxGeometry x="-0.2651" y="-1" relative="1" as="geometry">
            <mxPoint as="offset" />
          </mxGeometry>
        </mxCell>
        <mxCell id="ILvJcXqjGlOj7DsTZ9-h-17" value="Cập nhật&amp;nbsp;&lt;div&gt;bản sao&lt;/div&gt;" style="ellipse;whiteSpace=wrap;html=1;" vertex="1" parent="1">
          <mxGeometry x="520" y="1795" width="80" height="55" as="geometry" />
        </mxCell>
        <mxCell id="mtAjWwOIwIPZI-ChwPMv-5" style="edgeStyle=none;shape=connector;rounded=0;orthogonalLoop=1;jettySize=auto;html=1;entryX=1;entryY=0.5;entryDx=0;entryDy=0;dashed=1;strokeColor=default;align=center;verticalAlign=bottom;fontFamily=Helvetica;fontSize=11;fontColor=default;labelBackgroundColor=none;endArrow=open;endFill=0;endSize=16;" edge="1" parent="1" source="ILvJcXqjGlOj7DsTZ9-h-19" target="sxXpRoSORVbP_JtLXdpG-8">
          <mxGeometry relative="1" as="geometry" />
        </mxCell>
        <mxCell id="mtAjWwOIwIPZI-ChwPMv-6" value="&amp;lt;&amp;lt;extend&amp;gt;&amp;gt;" style="edgeLabel;html=1;align=center;verticalAlign=middle;resizable=0;points=[];fontFamily=Helvetica;fontSize=11;fontColor=default;labelBackgroundColor=none;" vertex="1" connectable="0" parent="mtAjWwOIwIPZI-ChwPMv-5">
          <mxGeometry x="-0.1491" y="2" relative="1" as="geometry">
            <mxPoint x="1" as="offset" />
          </mxGeometry>
        </mxCell>
        <mxCell id="ILvJcXqjGlOj7DsTZ9-h-19" value="Xem danh sách&lt;div&gt;bản sao&lt;/div&gt;" style="ellipse;whiteSpace=wrap;html=1;" vertex="1" parent="1">
          <mxGeometry x="544" y="1860" width="90" height="60" as="geometry" />
        </mxCell>
        <mxCell id="mtAjWwOIwIPZI-ChwPMv-3" style="edgeStyle=none;shape=connector;rounded=0;orthogonalLoop=1;jettySize=auto;html=1;entryX=0.5;entryY=0;entryDx=0;entryDy=0;dashed=1;strokeColor=default;align=center;verticalAlign=bottom;fontFamily=Helvetica;fontSize=11;fontColor=default;labelBackgroundColor=none;endArrow=open;endFill=0;endSize=16;" edge="1" parent="1" source="ILvJcXqjGlOj7DsTZ9-h-22" target="sxXpRoSORVbP_JtLXdpG-8">
          <mxGeometry relative="1" as="geometry" />
        </mxCell>
        <mxCell id="mtAjWwOIwIPZI-ChwPMv-4" value="&amp;lt;&amp;lt;extend&amp;gt;&amp;gt;" style="edgeLabel;html=1;align=center;verticalAlign=middle;resizable=0;points=[];fontFamily=Helvetica;fontSize=11;fontColor=default;labelBackgroundColor=none;" vertex="1" connectable="0" parent="mtAjWwOIwIPZI-ChwPMv-3">
          <mxGeometry x="-0.4121" y="2" relative="1" as="geometry">
            <mxPoint as="offset" />
          </mxGeometry>
        </mxCell>
        <mxCell id="ILvJcXqjGlOj7DsTZ9-h-22" value="Xóa bản sao" style="ellipse;whiteSpace=wrap;html=1;" vertex="1" parent="1">
          <mxGeometry x="393" y="1760" width="80" height="50" as="geometry" />
        </mxCell>
        <mxCell id="KntlDxWj1JQ8URdqVxIv-12" style="edgeStyle=none;shape=connector;rounded=0;orthogonalLoop=1;jettySize=auto;html=1;entryX=0.5;entryY=1;entryDx=0;entryDy=0;strokeColor=default;align=center;verticalAlign=middle;fontFamily=Helvetica;fontSize=11;fontColor=default;labelBackgroundColor=default;endArrow=block;endFill=0;endSize=16;" edge="1" parent="1" source="ILvJcXqjGlOj7DsTZ9-h-27" target="sxXpRoSORVbP_JtLXdpG-10">
          <mxGeometry relative="1" as="geometry" />
        </mxCell>
        <mxCell id="ILvJcXqjGlOj7DsTZ9-h-27" value="Sách/ thể loại được mượn nhiều nhất/ ít nhất" style="ellipse;whiteSpace=wrap;html=1;" vertex="1" parent="1">
          <mxGeometry x="-175" y="1350" width="105" height="50" as="geometry" />
        </mxCell>
        <mxCell id="ILvJcXqjGlOj7DsTZ9-h-28" style="edgeStyle=none;shape=connector;rounded=0;orthogonalLoop=1;jettySize=auto;html=1;entryX=0;entryY=0;entryDx=0;entryDy=0;strokeColor=default;align=center;verticalAlign=middle;fontFamily=Helvetica;fontSize=11;fontColor=default;labelBackgroundColor=default;endArrow=block;endFill=0;endSize=16;" edge="1" parent="1" source="ILvJcXqjGlOj7DsTZ9-h-29" target="sxXpRoSORVbP_JtLXdpG-10">
          <mxGeometry relative="1" as="geometry">
            <mxPoint x="-96" y="1148" as="targetPoint" />
          </mxGeometry>
        </mxCell>
        <mxCell id="ILvJcXqjGlOj7DsTZ9-h-29" value="Số lượng người mượn sách theo thời gian" style="ellipse;whiteSpace=wrap;html=1;" vertex="1" parent="1">
          <mxGeometry x="-345" y="1175" width="110" height="65" as="geometry" />
        </mxCell>
        <mxCell id="ILvJcXqjGlOj7DsTZ9-h-30" style="edgeStyle=none;shape=connector;rounded=0;orthogonalLoop=1;jettySize=auto;html=1;strokeColor=default;align=center;verticalAlign=middle;fontFamily=Helvetica;fontSize=11;fontColor=default;labelBackgroundColor=default;endArrow=block;endFill=0;endSize=16;exitX=1;exitY=0;exitDx=0;exitDy=0;entryX=0;entryY=1;entryDx=0;entryDy=0;" edge="1" parent="1" source="ILvJcXqjGlOj7DsTZ9-h-31" target="sxXpRoSORVbP_JtLXdpG-10">
          <mxGeometry relative="1" as="geometry">
            <mxPoint x="87" y="1279.5" as="sourcePoint" />
            <mxPoint x="-100" y="1179" as="targetPoint" />
          </mxGeometry>
        </mxCell>
        <mxCell id="ILvJcXqjGlOj7DsTZ9-h-31" value="Tổng số sách được thêm vào hàng tháng/ năm" style="ellipse;whiteSpace=wrap;html=1;" vertex="1" parent="1">
          <mxGeometry x="-320" y="1340" width="120" height="70" as="geometry" />
        </mxCell>
        <mxCell id="ILvJcXqjGlOj7DsTZ9-h-32" style="edgeStyle=none;shape=connector;rounded=0;orthogonalLoop=1;jettySize=auto;html=1;entryX=0.5;entryY=0;entryDx=0;entryDy=0;strokeColor=default;align=center;verticalAlign=middle;fontFamily=Helvetica;fontSize=11;fontColor=default;labelBackgroundColor=default;endArrow=block;endFill=0;endSize=16;" edge="1" parent="1" source="ILvJcXqjGlOj7DsTZ9-h-33" target="sxXpRoSORVbP_JtLXdpG-10">
          <mxGeometry relative="1" as="geometry">
            <mxPoint x="-265" y="1205" as="targetPoint" />
          </mxGeometry>
        </mxCell>
        <mxCell id="ILvJcXqjGlOj7DsTZ9-h-33" value="Tổng tiền phạt trả sách muộn" style="ellipse;whiteSpace=wrap;html=1;" vertex="1" parent="1">
          <mxGeometry x="-227.5" y="1169" width="105" height="50" as="geometry" />
        </mxCell>
        <mxCell id="KntlDxWj1JQ8URdqVxIv-1" value="&amp;lt;&amp;lt;include&amp;gt;&amp;gt;" style="html=1;verticalAlign=bottom;labelBackgroundColor=none;endArrow=open;endFill=0;dashed=1;rounded=0;strokeColor=default;align=center;fontFamily=Helvetica;fontSize=11;fontColor=default;endSize=16;entryX=0;entryY=0;entryDx=0;entryDy=0;exitX=1;exitY=1;exitDx=0;exitDy=0;" edge="1" parent="1" source="sxXpRoSORVbP_JtLXdpG-9" target="JXg_B-R4D7Lqk1NZYJ8m-3">
          <mxGeometry x="-0.1815" width="160" relative="1" as="geometry">
            <mxPoint x="252" y="1872" as="sourcePoint" />
            <mxPoint x="107.43999999999983" y="1313.7600000000002" as="targetPoint" />
            <mxPoint as="offset" />
          </mxGeometry>
        </mxCell>
        <mxCell id="JXg_B-R4D7Lqk1NZYJ8m-3" value="Đăng nhập" style="ellipse;whiteSpace=wrap;html=1;" vertex="1" parent="1">
          <mxGeometry x="80" y="1290" width="120" height="80" as="geometry" />
        </mxCell>
        <mxCell id="KntlDxWj1JQ8URdqVxIv-18" value="" style="endArrow=none;html=1;rounded=0;strokeColor=default;align=center;verticalAlign=middle;fontFamily=Helvetica;fontSize=11;fontColor=default;labelBackgroundColor=default;edgeStyle=none;endSize=16;exitX=0;exitY=0.031;exitDx=0;exitDy=0;exitPerimeter=0;entryX=1;entryY=0.031;entryDx=0;entryDy=0;entryPerimeter=0;" edge="1" parent="1" source="KntlDxWj1JQ8URdqVxIv-17" target="KntlDxWj1JQ8URdqVxIv-17">
          <mxGeometry width="50" height="50" relative="1" as="geometry">
            <mxPoint x="-480" y="720" as="sourcePoint" />
            <mxPoint x="180" y="710" as="targetPoint" />
          </mxGeometry>
        </mxCell>
        <mxCell id="KntlDxWj1JQ8URdqVxIv-19" value="Hệ thống quản lý thư viện" style="text;html=1;align=center;verticalAlign=middle;whiteSpace=wrap;rounded=0;fontFamily=Helvetica;fontSize=20;fontColor=default;labelBackgroundColor=default;fontStyle=1" vertex="1" parent="1">
          <mxGeometry x="-430" y="720" width="1080" height="40" as="geometry" />
        </mxCell>
        <mxCell id="hJ3ovrLD1dVx7QM47scg-1" value="" style="endArrow=none;dashed=1;html=1;strokeWidth=1;rounded=0;exitX=1;exitY=0.5;exitDx=0;exitDy=0;entryX=0;entryY=0.5;entryDx=0;entryDy=0;endFill=0;startArrow=open;startFill=0;endSize=6;" edge="1" parent="1" source="sxXpRoSORVbP_JtLXdpG-9" target="ILvJcXqjGlOj7DsTZ9-h-6">
          <mxGeometry width="50" height="50" relative="1" as="geometry">
            <mxPoint x="120" y="1220" as="sourcePoint" />
            <mxPoint x="170" y="1170" as="targetPoint" />
          </mxGeometry>
        </mxCell>
        <mxCell id="hJ3ovrLD1dVx7QM47scg-2" value="&amp;lt;&amp;lt;extend&amp;gt;&amp;gt;" style="edgeLabel;html=1;align=center;verticalAlign=middle;resizable=0;points=[];" connectable="0" vertex="1" parent="hJ3ovrLD1dVx7QM47scg-1">
          <mxGeometry x="0.152" relative="1" as="geometry">
            <mxPoint as="offset" />
          </mxGeometry>
        </mxCell>
        <mxCell id="mtAjWwOIwIPZI-ChwPMv-39" style="edgeStyle=none;shape=connector;rounded=0;orthogonalLoop=1;jettySize=auto;html=1;entryX=1;entryY=0;entryDx=0;entryDy=0;dashed=1;strokeColor=default;align=center;verticalAlign=bottom;fontFamily=Helvetica;fontSize=11;fontColor=default;labelBackgroundColor=none;endArrow=open;endFill=0;endSize=16;" edge="1" parent="1" source="lPs-DbJnuO5xEuhCPwWq-3" target="sxXpRoSORVbP_JtLXdpG-5">
          <mxGeometry relative="1" as="geometry" />
        </mxCell>
        <mxCell id="mtAjWwOIwIPZI-ChwPMv-47" value="&amp;lt;&amp;lt;extend&amp;gt;&amp;gt;" style="edgeLabel;html=1;align=center;verticalAlign=middle;resizable=0;points=[];fontFamily=Helvetica;fontSize=11;fontColor=default;labelBackgroundColor=none;" connectable="0" vertex="1" parent="mtAjWwOIwIPZI-ChwPMv-39">
          <mxGeometry x="-0.3202" y="1" relative="1" as="geometry">
            <mxPoint y="-1" as="offset" />
          </mxGeometry>
        </mxCell>
        <mxCell id="mtAjWwOIwIPZI-ChwPMv-38" style="edgeStyle=none;shape=connector;rounded=0;orthogonalLoop=1;jettySize=auto;html=1;entryX=1;entryY=0.5;entryDx=0;entryDy=0;dashed=1;strokeColor=default;align=center;verticalAlign=bottom;fontFamily=Helvetica;fontSize=11;fontColor=default;labelBackgroundColor=none;endArrow=open;endFill=0;endSize=16;" edge="1" parent="1" source="lPs-DbJnuO5xEuhCPwWq-5" target="sxXpRoSORVbP_JtLXdpG-5">
          <mxGeometry relative="1" as="geometry" />
        </mxCell>
        <mxCell id="mtAjWwOIwIPZI-ChwPMv-48" value="&amp;lt;&amp;lt;extend&amp;gt;&amp;gt;" style="edgeLabel;html=1;align=center;verticalAlign=middle;resizable=0;points=[];fontFamily=Helvetica;fontSize=11;fontColor=default;labelBackgroundColor=none;" connectable="0" vertex="1" parent="mtAjWwOIwIPZI-ChwPMv-38">
          <mxGeometry x="-0.1108" y="4" relative="1" as="geometry">
            <mxPoint x="-1" as="offset" />
          </mxGeometry>
        </mxCell>
        <mxCell id="mtAjWwOIwIPZI-ChwPMv-37" style="edgeStyle=none;shape=connector;rounded=0;orthogonalLoop=1;jettySize=auto;html=1;entryX=1;entryY=1;entryDx=0;entryDy=0;dashed=1;strokeColor=default;align=center;verticalAlign=bottom;fontFamily=Helvetica;fontSize=11;fontColor=default;labelBackgroundColor=none;endArrow=open;endFill=0;endSize=16;" edge="1" parent="1" source="lPs-DbJnuO5xEuhCPwWq-7" target="sxXpRoSORVbP_JtLXdpG-5">
          <mxGeometry relative="1" as="geometry" />
        </mxCell>
        <mxCell id="mtAjWwOIwIPZI-ChwPMv-49" value="&amp;lt;&amp;lt;extend&amp;gt;&amp;gt;" style="edgeLabel;html=1;align=center;verticalAlign=middle;resizable=0;points=[];fontFamily=Helvetica;fontSize=11;fontColor=default;labelBackgroundColor=none;" connectable="0" vertex="1" parent="mtAjWwOIwIPZI-ChwPMv-37">
          <mxGeometry x="-0.3834" y="-2" relative="1" as="geometry">
            <mxPoint as="offset" />
          </mxGeometry>
        </mxCell>
        <mxCell id="mtAjWwOIwIPZI-ChwPMv-60" style="edgeStyle=none;shape=connector;rounded=0;orthogonalLoop=1;jettySize=auto;html=1;entryX=0.652;entryY=0.944;entryDx=0;entryDy=0;entryPerimeter=0;dashed=1;strokeColor=default;align=center;verticalAlign=bottom;fontFamily=Helvetica;fontSize=11;fontColor=default;labelBackgroundColor=none;endArrow=open;endFill=0;endSize=16;" edge="1" parent="1" source="sxXpRoSORVbP_JtLXdpG-8" target="JXg_B-R4D7Lqk1NZYJ8m-3">
          <mxGeometry relative="1" as="geometry" />
        </mxCell>
        <mxCell id="mtAjWwOIwIPZI-ChwPMv-61" value="&amp;lt;&amp;lt;include&amp;gt;&amp;gt;" style="edgeLabel;html=1;align=center;verticalAlign=middle;resizable=0;points=[];fontFamily=Helvetica;fontSize=11;fontColor=default;labelBackgroundColor=none;" connectable="0" vertex="1" parent="mtAjWwOIwIPZI-ChwPMv-60">
          <mxGeometry x="-0.0403" y="-1" relative="1" as="geometry">
            <mxPoint y="-1" as="offset" />
          </mxGeometry>
        </mxCell>
      </root>
    </mxGraphModel>
  </diagram>
</mxfile>
